<?xml version="1.0" encoding="utf-8"?>
<!-- Generator: Adobe Illustrator 24.0.1, SVG Export Plug-In . SVG Version: 6.00 Build 0)  -->
<svg version="1.1" id="Layer_1" xmlns="http://www.w3.org/2000/svg" xmlns:xlink="http://www.w3.org/1999/xlink" x="0px" y="0px"
	 viewBox="0 0 100 125" style="enable-background:new 0 0 100 125;" xml:space="preserve">
<path d="M72.2,49.8H67V39c0-9.4-7.7-17.1-17.1-17.1S32.8,29.6,32.8,39v10.8h-5.2c-3.6,0-6.5,2.9-6.5,6.5v34.2c0,3.6,2.9,6.5,6.5,6.5
	h44.7c3.6,0,6.5-2.9,6.5-6.5V56.3C78.7,52.7,75.8,49.8,72.2,49.8z M35.8,39c0-7.8,6.3-14.1,14.1-14.1S64,31.2,64,39v10.8H35.8V39z
	 M75.7,90.5c0,1.9-1.6,3.5-3.5,3.5H27.6c-1.9,0-3.5-1.6-3.5-3.5V56.3c0-1.9,1.6-3.5,3.5-3.5h44.7c1.9,0,3.5,1.6,3.5,3.5L75.7,90.5
	L75.7,90.5z"/>
</svg>
