<?xml version="1.0" encoding="utf-8"?>
<!-- Generator: Adobe Illustrator 24.0.1, SVG Export Plug-In . SVG Version: 6.00 Build 0)  -->
<svg version="1.1" id="Layer_1" xmlns="http://www.w3.org/2000/svg" xmlns:xlink="http://www.w3.org/1999/xlink" x="0px" y="0px"
	 viewBox="0 0 100 125" style="enable-background:new 0 0 100 125;" xml:space="preserve">
<path d="M89.3,73.6c0,0.9,0.7,1.6,1.6,1.6h1c0.9,0,1.6-0.7,1.6-1.6V46.3l-4.1,1.5L89.3,73.6L89.3,73.6z"/>
<path d="M91.4,77.6L91.4,77.6c-2.6,0-4.8,6.7-4.8,15h9.5C96.2,84.3,94,77.6,91.4,77.6z"/>
<path d="M22.4,52c0,3.7,0,11.1,0,11.3c0,8.3,12.3,11.9,27.5,11.9s27.5-3.7,27.5-11.9c0-0.3,0-1.6,0-2.1v-9.3l-27.5,9.5L22.4,52z"/>
<polygon points="49.9,58.5 96.2,41.5 49.3,27.4 3.8,41.7 "/>
</svg>
