<?xml version="1.0" encoding="utf-8"?>
<!-- Generator: Adobe Illustrator 24.0.1, SVG Export Plug-In . SVG Version: 6.00 Build 0)  -->
<svg version="1.1" id="Layer_1" xmlns:figma="http://www.figma.com/figma/ns"
	 xmlns="http://www.w3.org/2000/svg" xmlns:xlink="http://www.w3.org/1999/xlink" x="0px" y="0px" viewBox="0 0 50 62.5"
	 style="enable-background:new 0 0 50 62.5;" xml:space="preserve">
<path d="M25,27c-4.3,0-7.7-3.4-7.7-7.7s3.4-7.7,7.7-7.7c3.1,0,5.8,1.8,7.1,4.7c0.3,0.8,1.1,1.2,1.8,1.2c0.3,0,0.5-0.1,0.8-0.2
	c1-0.4,1.5-1.6,1-2.6C34.2,11,30.8,8.5,27,7.8V6c0-1.1-0.9-2-2-2s-2,0.9-2,2v1.8c-5.5,1-9.7,5.7-9.7,11.5C13.3,25.8,18.5,31,25,31
	c4.3,0,7.7,3.4,7.7,7.7s-3.4,7.7-7.7,7.7c-3.1,0-5.8-1.8-7.1-4.7c-0.4-1-1.6-1.5-2.6-1c-1,0.4-1.5,1.6-1.1,2.6
	c1.6,3.7,4.9,6.3,8.7,6.9V52c0,1.1,0.9,2,2,2s2-0.9,2-2v-1.8c5.6-0.9,9.8-5.7,9.8-11.5C36.7,32.2,31.5,27,25,27z"/>
</svg>
