<?xml version="1.0" encoding="utf-8"?>
<!-- Generator: Adobe Illustrator 24.0.1, SVG Export Plug-In . SVG Version: 6.00 Build 0)  -->
<svg version="1.1" id="Layer_1" xmlns="http://www.w3.org/2000/svg" xmlns:xlink="http://www.w3.org/1999/xlink" x="0px" y="0px"
	 viewBox="0 0 100 125" style="enable-background:new 0 0 100 125;" xml:space="preserve">
<path d="M81.3,26.5H18.8c-3.9,0-7,3.1-7,7v46c0,3.9,3.1,7,7,7h62.5c3.9,0,7-3.1,7-7v-46C88.3,29.6,85.1,26.5,81.3,26.5z M81.3,30.5
	c0.7,0,1.4,0.3,1.9,0.7L50,56.9L16.8,31.2c0.5-0.4,1.2-0.7,1.9-0.7H81.3z M81.3,82.5H18.8c-1.7,0-3-1.3-3-3V35.4L50,62l34.3-26.6
	v44.1C84.3,81.1,82.9,82.5,81.3,82.5z"/>
</svg>
