<?xml version="1.0" encoding="utf-8"?>
<!-- Generator: Adobe Illustrator 24.0.1, SVG Export Plug-In . SVG Version: 6.00 Build 0)  -->
<svg version="1.1" id="Layer_1" xmlns="http://www.w3.org/2000/svg" xmlns:xlink="http://www.w3.org/1999/xlink" x="0px" y="0px"
	 viewBox="0 0 100 125" style="enable-background:new 0 0 100 125;" xml:space="preserve">
<path d="M73.3,80.8H27.6c-4.3,0-7.9-3.5-7.9-7.9V27.1c0-4.3,3.5-7.9,7.9-7.9h45.8c4.3,0,7.9,3.5,7.9,7.9v45.8
	C81.2,77.2,77.7,80.8,73.3,80.8z M27.6,25.3c-1,0-1.9,0.8-1.9,1.9v45.8c0,1,0.8,1.9,1.9,1.9h45.8c1,0,1.9-0.8,1.9-1.9V27.1
	c0-1-0.8-1.9-1.9-1.9H27.6z"/>
<path d="M56.9,60.9c0,0.2-0.1,0.4-0.3,0.6c-2.4,2.3-4.1,3.7-5.2,4.3c-1.2,0.7-2.2,1-3,1c-0.8,0-1.5-0.3-2-0.8
	c-0.5-0.5-0.7-1.2-0.7-2.1c0-2.2,1.3-7.4,3.8-15.7c0-0.1,0.1-0.3,0.1-0.4c-0.1,0-0.2,0.1-0.3,0.2c-0.2,0.1-0.9,0.6-2.7,2.5
	c-0.3,0.3-0.7,0.3-1.1,0.1l-1.1-0.9c-0.2-0.1-0.3-0.3-0.3-0.6c0-0.2,0.1-0.4,0.2-0.6c1.7-1.9,3.4-3.3,4.8-4.1c1.5-0.9,2.8-1.3,4-1.3
	c0.7,0,1.3,0.2,1.8,0.5c0.5,0.4,0.7,0.9,0.7,1.6c0,0.4-0.2,1.5-1.7,6.5c-2.1,7.1-2.6,9.6-2.6,10.5c0.4-0.2,1.3-0.9,3.4-2.8
	c0.3-0.3,0.8-0.3,1.1,0l1,1C56.8,60.5,56.9,60.7,56.9,60.9z"/>
<path d="M56.8,35.9c0,0.9-0.3,1.8-1,2.5c-0.7,0.7-1.5,1.1-2.3,1.1c-0.7,0-1.4-0.3-1.9-0.8c-0.5-0.5-0.7-1.2-0.7-1.9
	c0-1,0.3-1.8,0.9-2.5c0.6-0.7,1.4-1.1,2.3-1.1c0.7,0,1.4,0.3,1.9,0.8C56.5,34.5,56.8,35.1,56.8,35.9z"/>
</svg>
