<?xml version="1.0" encoding="utf-8"?>
<!-- Generator: Adobe Illustrator 24.0.1, SVG Export Plug-In . SVG Version: 6.00 Build 0)  -->
<svg version="1.1" id="Layer_1" xmlns="http://www.w3.org/2000/svg" xmlns:xlink="http://www.w3.org/1999/xlink" x="0px" y="0px"
	 viewBox="0 0 64 80" style="enable-background:new 0 0 64 80;" xml:space="preserve">
<g>
	<path d="M36.6,33.6c-0.1-0.8-0.2-1.5,0-1.7C40.5,29.7,43,25.1,43,20c0-7.2-4.9-13-11-13s-11,5.8-11,13c0,5.1,2.5,9.7,6.4,11.8
		c0.2,0.2,0.1,1,0,1.7C20.6,35.1,13,38.2,13,48v8c0,0.6,0.4,1,1,1s1-0.4,1-1v-8c0-6.9,4-10.7,13.5-12.6c0.4-0.1,0.7-0.4,0.8-0.8
		c0.2-1.1,0.3-2.1,0.1-3c0.2-0.5-0.1-1-0.5-1.2l-0.5-0.2c0,0,0,0,0,0C25.2,28.4,23,24.4,23,20c0-6.1,4-11,9-11c5,0,9,4.9,9,11
		c0,4.4-2.2,8.4-5.4,10.1c0,0,0,0,0,0l-0.5,0.2c-0.5,0.2-0.7,0.7-0.5,1.2c-0.2,0.9,0,1.9,0.1,3c0.1,0.4,0.4,0.7,0.8,0.8
		C45,37.3,49,41.1,49,48v8c0,0.6,0.4,1,1,1s1-0.4,1-1v-8C51,38.2,43.4,35.1,36.6,33.6z"/>
</g>
</svg>
